<?xml version="1.0" encoding="utf-8" standalone="no"?>
<!DOCTYPE svg PUBLIC "-//W3C//DTD SVG 1.1//EN"
  "http://www.w3.org/Graphics/SVG/1.1/DTD/svg11.dtd">
<svg xmlns:xlink="http://www.w3.org/1999/xlink" width="460.8pt" height="345.6pt" viewBox="0 0 460.8 345.6" xmlns="http://www.w3.org/2000/svg" version="1.1">
 <metadata>
  <rdf:RDF xmlns:dc="http://purl.org/dc/elements/1.1/" xmlns:cc="http://creativecommons.org/ns#" xmlns:rdf="http://www.w3.org/1999/02/22-rdf-syntax-ns#">
   <cc:Work>
    <dc:type rdf:resource="http://purl.org/dc/dcmitype/StillImage"/>
    <dc:date>2024-02-29T12:21:24.036877</dc:date>
    <dc:format>image/svg+xml</dc:format>
    <dc:creator>
     <cc:Agent>
      <dc:title>Matplotlib v3.8.3, https://matplotlib.org/</dc:title>
     </cc:Agent>
    </dc:creator>
   </cc:Work>
  </rdf:RDF>
 </metadata>
 <defs>
  <style type="text/css">*{stroke-linejoin: round; stroke-linecap: butt}</style>
 </defs>
 <g id="figure_1">
  <g id="patch_1">
   <path d="M 0 345.6 
L 460.8 345.6 
L 460.8 0 
L 0 0 
z
" style="fill: #ffffff"/>
  </g>
  <g id="axes_1">
   <g id="LineCollection_1">
    <path d="M 39.986777 307.904712 
L 69.494792 314.650799 
" clip-path="url(#p3b56303b1f)" style="fill: none; stroke: #000000"/>
    <path d="M 69.494792 314.650799 
L 105.877009 315.609917 
" clip-path="url(#p3b56303b1f)" style="fill: none; stroke: #000000"/>
    <path d="M 105.877009 315.609917 
L 147.235386 307.274281 
" clip-path="url(#p3b56303b1f)" style="fill: none; stroke: #000000"/>
    <path d="M 147.235386 307.274281 
L 191.69801 290.717225 
" clip-path="url(#p3b56303b1f)" style="fill: none; stroke: #000000"/>
    <path d="M 191.69801 290.717225 
L 236.083245 265.689694 
" clip-path="url(#p3b56303b1f)" style="fill: none; stroke: #000000"/>
    <path d="M 236.083245 265.689694 
L 281.519159 232.697533 
" clip-path="url(#p3b56303b1f)" style="fill: none; stroke: #000000"/>
    <path d="M 281.519159 232.697533 
L 327.277739 191.056164 
" clip-path="url(#p3b56303b1f)" style="fill: none; stroke: #000000"/>
    <path d="M 327.277739 191.056164 
L 370.100332 136.07696 
" clip-path="url(#p3b56303b1f)" style="fill: none; stroke: #000000"/>
    <path d="M 370.100332 136.07696 
L 365.220748 90.137595 
" clip-path="url(#p3b56303b1f)" style="fill: none; stroke: #000000"/>
    <path d="M 370.100332 136.07696 
L 406.792572 109.049934 
" clip-path="url(#p3b56303b1f)" style="fill: none; stroke: #000000"/>
    <path d="M 365.220748 90.137595 
L 353.761369 156.825427 
" clip-path="url(#p3b56303b1f)" style="fill: none; stroke: #000000"/>
    <path d="M 365.220748 90.137595 
L 365.195271 29.990083 
" clip-path="url(#p3b56303b1f)" style="fill: none; stroke: #000000"/>
    <path d="M 353.761369 156.825427 
L 383.990994 238.493518 
" clip-path="url(#p3b56303b1f)" style="fill: none; stroke: #000000"/>
    <path d="M 353.761369 156.825427 
L 333.435348 107.379896 
" clip-path="url(#p3b56303b1f)" style="fill: none; stroke: #000000"/>
    <path d="M 353.761369 156.825427 
L 318.796105 141.130365 
" clip-path="url(#p3b56303b1f)" style="fill: none; stroke: #000000"/>
    <path d="M 383.990994 238.493518 
L 380.59842 294.220159 
" clip-path="url(#p3b56303b1f)" style="fill: none; stroke: #000000"/>
    <path d="M 383.990994 238.493518 
L 407.349678 286.532973 
" clip-path="url(#p3b56303b1f)" style="fill: none; stroke: #000000"/>
    <path d="M 383.990994 238.493518 
L 420.813223 247.71205 
" clip-path="url(#p3b56303b1f)" style="fill: none; stroke: #000000"/>
   </g>
   <g id="PathCollection_1">
    <defs>
     <path id="mf49b93c7de" d="M 0 5 
C 1.326016 5 2.597899 4.473168 3.535534 3.535534 
C 4.473168 2.597899 5 1.326016 5 0 
C 5 -1.326016 4.473168 -2.597899 3.535534 -3.535534 
C 2.597899 -4.473168 1.326016 -5 0 -5 
C -1.326016 -5 -2.597899 -4.473168 -3.535534 -3.535534 
C -4.473168 -2.597899 -5 -1.326016 -5 0 
C -5 1.326016 -4.473168 2.597899 -3.535534 3.535534 
C -2.597899 4.473168 -1.326016 5 0 5 
z
" style="stroke: #000000"/>
    </defs>
    <g clip-path="url(#p3b56303b1f)">
     <use xlink:href="#mf49b93c7de" x="39.986777" y="307.904712" style="stroke: #000000"/>
     <use xlink:href="#mf49b93c7de" x="69.494792" y="314.650799" style="stroke: #000000"/>
     <use xlink:href="#mf49b93c7de" x="105.877009" y="315.609917" style="stroke: #000000"/>
     <use xlink:href="#mf49b93c7de" x="147.235386" y="307.274281" style="stroke: #000000"/>
     <use xlink:href="#mf49b93c7de" x="191.69801" y="290.717225" style="stroke: #000000"/>
     <use xlink:href="#mf49b93c7de" x="236.083245" y="265.689694" style="stroke: #000000"/>
     <use xlink:href="#mf49b93c7de" x="281.519159" y="232.697533" style="stroke: #000000"/>
     <use xlink:href="#mf49b93c7de" x="327.277739" y="191.056164" style="stroke: #000000"/>
     <use xlink:href="#mf49b93c7de" x="370.100332" y="136.07696" style="stroke: #000000"/>
     <use xlink:href="#mf49b93c7de" x="365.220748" y="90.137595" style="stroke: #000000"/>
     <use xlink:href="#mf49b93c7de" x="353.761369" y="156.825427" style="stroke: #000000"/>
     <use xlink:href="#mf49b93c7de" x="383.990994" y="238.493518" style="stroke: #000000"/>
     <use xlink:href="#mf49b93c7de" x="380.59842" y="294.220159" style="stroke: #000000"/>
     <use xlink:href="#mf49b93c7de" x="406.792572" y="109.049934" style="stroke: #000000"/>
     <use xlink:href="#mf49b93c7de" x="365.195271" y="29.990083" style="stroke: #000000"/>
     <use xlink:href="#mf49b93c7de" x="333.435348" y="107.379896" style="stroke: #000000"/>
     <use xlink:href="#mf49b93c7de" x="318.796105" y="141.130365" style="stroke: #000000"/>
     <use xlink:href="#mf49b93c7de" x="407.349678" y="286.532973" style="stroke: #000000"/>
     <use xlink:href="#mf49b93c7de" x="420.813223" y="247.71205" style="stroke: #000000"/>
    </g>
   </g>
   <g id="text_1">
    <!-- Simple Tree -->
    <g transform="translate(195.51 -6) scale(0.12 -0.12)">
     <defs>
      <path id="DejaVuSans-53" d="M 3425 4513 
L 3425 3897 
Q 3066 4069 2747 4153 
Q 2428 4238 2131 4238 
Q 1616 4238 1336 4038 
Q 1056 3838 1056 3469 
Q 1056 3159 1242 3001 
Q 1428 2844 1947 2747 
L 2328 2669 
Q 3034 2534 3370 2195 
Q 3706 1856 3706 1288 
Q 3706 609 3251 259 
Q 2797 -91 1919 -91 
Q 1588 -91 1214 -16 
Q 841 59 441 206 
L 441 856 
Q 825 641 1194 531 
Q 1563 422 1919 422 
Q 2459 422 2753 634 
Q 3047 847 3047 1241 
Q 3047 1584 2836 1778 
Q 2625 1972 2144 2069 
L 1759 2144 
Q 1053 2284 737 2584 
Q 422 2884 422 3419 
Q 422 4038 858 4394 
Q 1294 4750 2059 4750 
Q 2388 4750 2728 4690 
Q 3069 4631 3425 4513 
z
" transform="scale(0.015625)"/>
      <path id="DejaVuSans-69" d="M 603 3500 
L 1178 3500 
L 1178 0 
L 603 0 
L 603 3500 
z
M 603 4863 
L 1178 4863 
L 1178 4134 
L 603 4134 
L 603 4863 
z
" transform="scale(0.015625)"/>
      <path id="DejaVuSans-6d" d="M 3328 2828 
Q 3544 3216 3844 3400 
Q 4144 3584 4550 3584 
Q 5097 3584 5394 3201 
Q 5691 2819 5691 2113 
L 5691 0 
L 5113 0 
L 5113 2094 
Q 5113 2597 4934 2840 
Q 4756 3084 4391 3084 
Q 3944 3084 3684 2787 
Q 3425 2491 3425 1978 
L 3425 0 
L 2847 0 
L 2847 2094 
Q 2847 2600 2669 2842 
Q 2491 3084 2119 3084 
Q 1678 3084 1418 2786 
Q 1159 2488 1159 1978 
L 1159 0 
L 581 0 
L 581 3500 
L 1159 3500 
L 1159 2956 
Q 1356 3278 1631 3431 
Q 1906 3584 2284 3584 
Q 2666 3584 2933 3390 
Q 3200 3197 3328 2828 
z
" transform="scale(0.015625)"/>
      <path id="DejaVuSans-70" d="M 1159 525 
L 1159 -1331 
L 581 -1331 
L 581 3500 
L 1159 3500 
L 1159 2969 
Q 1341 3281 1617 3432 
Q 1894 3584 2278 3584 
Q 2916 3584 3314 3078 
Q 3713 2572 3713 1747 
Q 3713 922 3314 415 
Q 2916 -91 2278 -91 
Q 1894 -91 1617 61 
Q 1341 213 1159 525 
z
M 3116 1747 
Q 3116 2381 2855 2742 
Q 2594 3103 2138 3103 
Q 1681 3103 1420 2742 
Q 1159 2381 1159 1747 
Q 1159 1113 1420 752 
Q 1681 391 2138 391 
Q 2594 391 2855 752 
Q 3116 1113 3116 1747 
z
" transform="scale(0.015625)"/>
      <path id="DejaVuSans-6c" d="M 603 4863 
L 1178 4863 
L 1178 0 
L 603 0 
L 603 4863 
z
" transform="scale(0.015625)"/>
      <path id="DejaVuSans-65" d="M 3597 1894 
L 3597 1613 
L 953 1613 
Q 991 1019 1311 708 
Q 1631 397 2203 397 
Q 2534 397 2845 478 
Q 3156 559 3463 722 
L 3463 178 
Q 3153 47 2828 -22 
Q 2503 -91 2169 -91 
Q 1331 -91 842 396 
Q 353 884 353 1716 
Q 353 2575 817 3079 
Q 1281 3584 2069 3584 
Q 2775 3584 3186 3129 
Q 3597 2675 3597 1894 
z
M 3022 2063 
Q 3016 2534 2758 2815 
Q 2500 3097 2075 3097 
Q 1594 3097 1305 2825 
Q 1016 2553 972 2059 
L 3022 2063 
z
" transform="scale(0.015625)"/>
      <path id="DejaVuSans-20" transform="scale(0.015625)"/>
      <path id="DejaVuSans-54" d="M -19 4666 
L 3928 4666 
L 3928 4134 
L 2272 4134 
L 2272 0 
L 1638 0 
L 1638 4134 
L -19 4134 
L -19 4666 
z
" transform="scale(0.015625)"/>
      <path id="DejaVuSans-72" d="M 2631 2963 
Q 2534 3019 2420 3045 
Q 2306 3072 2169 3072 
Q 1681 3072 1420 2755 
Q 1159 2438 1159 1844 
L 1159 0 
L 581 0 
L 581 3500 
L 1159 3500 
L 1159 2956 
Q 1341 3275 1631 3429 
Q 1922 3584 2338 3584 
Q 2397 3584 2469 3576 
Q 2541 3569 2628 3553 
L 2631 2963 
z
" transform="scale(0.015625)"/>
     </defs>
     <use xlink:href="#DejaVuSans-53"/>
     <use xlink:href="#DejaVuSans-69" x="63.476562"/>
     <use xlink:href="#DejaVuSans-6d" x="91.259766"/>
     <use xlink:href="#DejaVuSans-70" x="188.671875"/>
     <use xlink:href="#DejaVuSans-6c" x="252.148438"/>
     <use xlink:href="#DejaVuSans-65" x="279.931641"/>
     <use xlink:href="#DejaVuSans-20" x="341.455078"/>
     <use xlink:href="#DejaVuSans-54" x="373.242188"/>
     <use xlink:href="#DejaVuSans-72" x="419.576172"/>
     <use xlink:href="#DejaVuSans-65" x="458.439453"/>
     <use xlink:href="#DejaVuSans-65" x="519.962891"/>
    </g>
   </g>
  </g>
 </g>
 <defs>
  <clipPath id="p3b56303b1f">
   <rect x="0" y="0" width="460.8" height="345.6"/>
  </clipPath>
 </defs>
</svg>
